<svg xmlns="http://www.w3.org/2000/svg" width="640" height="360" viewBox="0 0 640 360" role="img" aria-labelledby="title desc">
  <title id="title">Client websites and reporting preview</title>
  <desc id="desc">A browser-style website mockup with a hero section, metric cards, and a reporting panel.</desc>
  <defs>
    <linearGradient id="bg" x1="0" x2="1" y1="0" y2="1">
      <stop offset="0%" stop-color="#182338"/>
      <stop offset="100%" stop-color="#0b1322"/>
    </linearGradient>
    <linearGradient id="hero" x1="0" x2="1" y1="0" y2="1">
      <stop offset="0%" stop-color="#f8f3ea"/>
      <stop offset="100%" stop-color="#eef2fb"/>
    </linearGradient>
    <linearGradient id="accent" x1="0" x2="1" y1="0" y2="0">
      <stop offset="0%" stop-color="#79b8ff"/>
      <stop offset="100%" stop-color="#ffd166"/>
    </linearGradient>
    <filter id="shadow" x="-20%" y="-20%" width="140%" height="140%">
      <feDropShadow dx="0" dy="14" stdDeviation="16" flood-color="#02060d" flood-opacity="0.32"/>
    </filter>
  </defs>

  <rect width="640" height="360" fill="url(#bg)"/>
  <circle cx="558" cy="292" r="104" fill="#10203d" opacity="0.55"/>
  <circle cx="94" cy="72" r="82" fill="#22385e" opacity="0.3"/>

  <g filter="url(#shadow)">
    <rect x="36" y="28" width="568" height="304" rx="24" fill="#10192b" stroke="#33435e" stroke-width="1.2"/>
    <rect x="36" y="28" width="568" height="34" rx="24" fill="#162239"/>
    <rect x="36" y="52" width="568" height="280" fill="#111c2e"/>

    <circle cx="60" cy="45" r="4" fill="#ff8a80" opacity="0.9"/>
    <circle cx="76" cy="45" r="4" fill="#ffd166" opacity="0.9"/>
    <circle cx="92" cy="45" r="4" fill="#77dd77" opacity="0.9"/>
    <rect x="154" y="38" width="234" height="14" rx="7" fill="#243451"/>
    <rect x="402" y="38" width="56" height="14" rx="7" fill="#243451"/>
    <rect x="466" y="38" width="88" height="14" rx="7" fill="#79b8ff" opacity="0.95"/>

    <rect x="60" y="76" width="520" height="114" rx="20" fill="url(#hero)"/>
    <rect x="82" y="96" width="82" height="10" rx="5" fill="#7aa8ff"/>
    <rect x="82" y="118" width="204" height="16" rx="8" fill="#15213a" opacity="0.92"/>
    <rect x="82" y="142" width="182" height="16" rx="8" fill="#15213a" opacity="0.88"/>
    <rect x="82" y="168" width="110" height="12" rx="6" fill="#687791" opacity="0.78"/>
    <rect x="202" y="168" width="78" height="12" rx="6" fill="#687791" opacity="0.55"/>
    <rect x="82" y="202" width="98" height="16" rx="8" fill="#15213a"/>
    <rect x="190" y="202" width="114" height="16" rx="8" fill="none" stroke="#15213a" stroke-width="1.6"/>

    <rect x="354" y="92" width="196" height="120" rx="18" fill="#ffffff" stroke="#dde5f2"/>
    <rect x="370" y="108" width="164" height="44" rx="14" fill="#e8eef9"/>
    <rect x="384" y="120" width="70" height="10" rx="5" fill="#15213a" opacity="0.9"/>
    <rect x="384" y="138" width="92" height="8" rx="4" fill="#7a8aa8"/>
    <path d="M386 186 L414 170 L444 174 L472 152 L500 158 L530 132" fill="none" stroke="url(#accent)" stroke-width="5" stroke-linecap="round" stroke-linejoin="round"/>
    <rect x="438" y="156" width="88" height="52" rx="14" fill="#12203a"/>
    <rect x="454" y="172" width="34" height="10" rx="5" fill="#f4f7fc"/>
    <rect x="454" y="190" width="56" height="8" rx="4" fill="#7aa8ff"/>

    <rect x="60" y="212" width="166" height="92" rx="18" fill="#17243b" stroke="#2f415f"/>
    <rect x="82" y="234" width="74" height="10" rx="5" fill="#e8edf6"/>
    <rect x="82" y="252" width="58" height="26" rx="8" fill="#ffffff"/>
    <rect x="148" y="252" width="48" height="26" rx="8" fill="#79b8ff"/>
    <rect x="82" y="286" width="112" height="6" rx="3" fill="#60718d"/>

    <rect x="236" y="212" width="166" height="92" rx="18" fill="#17243b" stroke="#2f415f"/>
    <rect x="258" y="234" width="70" height="10" rx="5" fill="#e8edf6"/>
    <rect x="262" y="270" width="18" height="18" rx="5" fill="#ffd166"/>
    <rect x="288" y="258" width="18" height="30" rx="5" fill="#79b8ff"/>
    <rect x="314" y="246" width="18" height="42" rx="5" fill="#9dd3a8"/>
    <rect x="340" y="228" width="18" height="60" rx="5" fill="#f4f7fc"/>

    <rect x="412" y="212" width="168" height="92" rx="18" fill="#17243b" stroke="#2f415f"/>
    <rect x="434" y="234" width="86" height="10" rx="5" fill="#e8edf6"/>
    <rect x="434" y="254" width="110" height="8" rx="4" fill="#60718d"/>
    <rect x="434" y="270" width="92" height="8" rx="4" fill="#60718d"/>
    <rect x="434" y="286" width="74" height="8" rx="4" fill="#60718d"/>
    <circle cx="542" cy="274" r="18" fill="none" stroke="#79b8ff" stroke-width="7"/>
    <path d="M542 256 A18 18 0 0 1 559 286" fill="none" stroke="#ffd166" stroke-width="7" stroke-linecap="round"/>
  </g>
</svg>
